<?xml version="1.0" encoding="UTF-8" standalone="no"?>
<!-- Created with Inkscape (http://www.inkscape.org/) -->

<svg
   xmlns:dc="http://purl.org/dc/elements/1.1/"
   xmlns:cc="http://creativecommons.org/ns#"
   xmlns:rdf="http://www.w3.org/1999/02/22-rdf-syntax-ns#"
   xmlns:svg="http://www.w3.org/2000/svg"
   xmlns="http://www.w3.org/2000/svg"
   xmlns:sodipodi="http://sodipodi.sourceforge.net/DTD/sodipodi-0.dtd"
   xmlns:inkscape="http://www.inkscape.org/namespaces/inkscape"
   width="133.84967mm"
   height="101.87456mm"
   viewBox="0 0 474.27049 360.97284"
   id="svg4978"
   version="1.1"
   inkscape:version="0.91 r13725"
   sodipodi:docname="left-hand.svg">
  <defs
     id="defs4980" />
  <sodipodi:namedview
     id="base"
     pagecolor="#ffffff"
     bordercolor="#666666"
     borderopacity="1.0"
     inkscape:pageopacity="0.0"
     inkscape:pageshadow="2"
     inkscape:zoom="0.64"
     inkscape:cx="547.76283"
     inkscape:cy="309.01761"
     inkscape:document-units="px"
     inkscape:current-layer="layer1"
     showgrid="false"
     fit-margin-top="0"
     fit-margin-left="0"
     fit-margin-right="0"
     fit-margin-bottom="0"
     inkscape:window-width="1920"
     inkscape:window-height="1017"
     inkscape:window-x="0"
     inkscape:window-y="870"
     inkscape:window-maximized="1" />
  <metadata
     id="metadata4983">
    <rdf:RDF>
      <cc:Work
         rdf:about="">
        <dc:format>image/svg+xml</dc:format>
        <dc:type
           rdf:resource="http://purl.org/dc/dcmitype/StillImage" />
        <dc:title></dc:title>
      </cc:Work>
    </rdf:RDF>
  </metadata>
  <g
     inkscape:label="Layer 1"
     inkscape:groupmode="layer"
     id="layer1"
     transform="translate(-187.81449,-624.9615)">
    <path
       style="fill:#000000"
       d="m 578.63438,969.84078 c -5.81574,-0.0237 -6.49343,-0.28461 -11.5,-4.42701 -2.92604,-2.42098 -5.4957,-4.81616 -5.71036,-5.32262 -0.65699,-1.55013 -6.11793,-6.57917 -7.1442,-6.57917 -0.53104,0 -0.96552,-0.53788 -0.96552,-1.19528 0,-0.65741 -1.05908,-2.34491 -2.35352,-3.75 -1.29443,-1.4051 -3.13358,-4.80472 -4.087,-7.55472 -3.59209,-10.36086 -4.06797,-11.5 -4.80417,-11.5 -0.41542,0 -0.75531,-0.41328 -0.75531,-0.9184 0,-0.50512 -1.80075,-2.79262 -4.00166,-5.08333 -2.20092,-2.29071 -4.60009,-5.0193 -5.3315,-6.06353 -1.89977,-2.71231 -5.98845,-2.98862 -6.43301,-0.43474 -0.52476,3.01458 -3.50883,8.79206 -5.48383,10.6173 -0.9625,0.88951 -1.75,2.15357 -1.75,2.80901 0,0.65545 -0.39534,0.94739 -0.87854,0.64876 -0.48319,-0.29863 -2.1848,0.10868 -3.78134,0.90514 -1.948,0.97179 -6.79284,1.51887 -14.72931,1.66323 -8.53739,0.15528 -12.21368,0.60229 -13.21866,1.60726 -1.02362,1.02363 -1.39215,1.06441 -1.39215,0.15406 0,-0.68095 -0.28596,-0.95214 -0.63546,-0.60263 -0.3495,0.3495 0.19682,1.887 1.21405,3.41666 1.01723,1.52967 1.7249,3.56871 1.5726,4.53121 -0.1523,0.9625 0.11098,1.75 0.58506,1.75 1.38855,0 3.26375,6.28267 3.26375,10.93484 0,4.06504 -3.16727,11.68237 -5.5,13.22756 -0.55,0.36431 -2.05466,1.57866 -3.34369,2.69855 -2.6522,2.30418 -12.13558,4.59779 -15.10876,3.65414 -1.08121,-0.34316 -7.43156,0.12227 -14.11191,1.03429 -11.30156,1.54291 -12.53856,1.54322 -17.79086,0.004 -3.10463,-0.90961 -6.99478,-2.26657 -8.64478,-3.01547 -8.11045,-3.68112 -12.57896,-4.31647 -14.79224,-2.10319 -0.7893,0.78931 -3.85894,2.20797 -6.82143,3.1526 -2.96248,0.94462 -5.84683,2.06928 -6.40967,2.49924 -1.00591,0.76842 -13.60983,4.42413 -20.47666,5.93916 -11.35463,2.50517 -15.58609,2.98215 -29.31842,3.30488 -8.34987,0.19661 -19.68158,0.0667 -25.18158,-0.28834 -10.26307,-0.66248 -23.46677,-3.38806 -33.90655,-6.99918 -3.2486,-1.1237 -6.77138,-2.04308 -7.8284,-2.04308 -1.9028,0 -9.76505,-7.31198 -9.76505,-9.0816 0,-1.18246 -5.30267,-1.19932 -6.55,-0.0208 -0.5225,0.49367 -2.75,1.10345 -4.95,1.35507 -2.2,0.25163 -8.37628,1.64334 -13.72507,3.09271 -9.32475,2.52673 -10.70375,2.62921 -33.5,2.48964 -13.07621,-0.0801 -24.14548,-0.34767 -24.59837,-0.59469 -0.4529,-0.24701 -0.003,-0.99534 1,-1.66295 1.24168,-0.82657 5.49248,-1.11332 13.32344,-0.89878 32.02819,0.87748 33.19138,0.83595 42.5,-1.51758 4.95,-1.25153 10.2375,-2.52581 11.75,-2.83175 1.5125,-0.30593 2.75,-0.95516 2.75,-1.44274 0,-0.48757 0.59385,-0.8865 1.31966,-0.8865 3.11991,0 7.70516,-8.00365 5.89967,-10.29799 -1.44857,-1.84078 -2.47363,-18.35631 -1.05101,-16.93369 1.14223,1.14223 2.17546,5.68256 3.80784,16.73287 0.96824,6.55449 5.35957,15.49881 7.60933,15.49881 0.77798,0 1.41451,0.57101 1.41451,1.26891 0,1.7729 17.3418,8.00319 27.18813,9.76773 2.92153,0.52356 7.48118,1.39685 10.13257,1.94065 6.78199,1.39098 44.05881,1.39896 50.1793,0.0107 2.75,-0.62374 8.375,-1.78117 12.5,-2.57206 4.125,-0.7909 7.65,-1.88304 7.83333,-2.42698 0.18334,-0.54394 1.55983,-0.98899 3.05887,-0.98899 1.49905,0 3.59905,-0.66069 4.66667,-1.4682 1.06762,-0.8075 2.95363,-1.4825 4.19113,-1.5 1.2375,-0.0175 2.25,-0.4818 2.25,-1.0318 0,-0.55 0.9,-1 2,-1 1.1,0 2.89763,-0.89763 3.99473,-1.99473 1.89347,-1.89347 1.90757,-2.09651 0.27776,-4 -0.94434,-1.10289 -2.29196,-2.00526 -2.99473,-2.00526 -0.70277,0 -1.27776,-0.6123 -1.27776,-1.36067 0,-0.74838 -2.8125,-2.84698 -6.25,-4.66356 -3.4375,-1.81658 -6.57684,-3.84527 -6.9763,-4.50819 -0.39947,-0.66292 -2.02681,-1.74399 -3.61632,-2.40239 -3.2376,-1.34106 -4.29652,-3.02771 -7.10116,-11.31077 -1.74778,-5.16179 -1.8104,-6.26621 -0.61629,-10.86963 0.73104,-2.81822 1.75144,-5.40771 2.26756,-5.75442 1.50126,-1.00848 2.29421,-4.01129 1.23252,-4.66744 -0.53495,-0.33062 -0.73295,-0.98894 -0.44001,-1.46293 0.29294,-0.47399 0.006,-1.18743 -0.6382,-1.58541 -0.73122,-0.45192 -0.90292,-0.29014 -0.45729,0.4309 0.43725,0.70748 0.0131,1.16682 -1.09549,1.18631 -2.72205,0.0479 -5.30902,2.41594 -5.30902,4.85983 0,1.19413 -0.7875,2.42376 -1.75,2.73253 -3.31692,1.06404 -10.16581,4.6486 -11.96136,6.26031 -0.98989,0.88854 -3.82229,2.70697 -6.29422,4.04095 -2.47193,1.33398 -4.71942,2.70743 -4.99442,3.05211 -0.98652,1.23646 -7.84414,4.02247 -9.90113,4.02247 -1.15438,0 -2.09965,0.3375 -2.10061,0.75 -9.5e-4,0.4125 -3.93845,0.66385 -8.75,0.55855 -13.1426,-0.28762 -14.53945,-0.45689 -16.02428,-1.94172 -0.75176,-0.75176 -2.02762,-1.36683 -2.83525,-1.36683 -4.05877,0 -19.26073,-10.02559 -21.16549,-13.9585 -0.81018,-1.67282 -1.99476,-3.0415 -2.63242,-3.0415 -2.10578,0 -8.19463,-15.68885 -11.64302,-30 -2.5123,-10.42627 -4.21488,-20.06625 -3.64473,-20.6364 0.87254,-0.87254 3.81298,1.63962 3.15855,2.6985 -0.63983,1.03526 1.28544,13.43869 2.44432,15.74742 1.43672,2.86224 3.09406,8.7223 3.09406,10.94005 0,1.15916 0.675,2.78257 1.5,3.60757 0.825,0.825 1.5,2.86631 1.5,4.53625 0,1.9566 0.67376,3.39683 1.89482,4.05032 1.04215,0.55774 2.34472,2.26107 2.89461,3.78518 0.54989,1.52411 2.50972,4.43294 4.35518,6.46406 1.84547,2.03113 4.03039,4.50613 4.85539,5.5 2.08326,2.5097 7.67708,5.30705 10.61242,5.30705 1.34769,0 2.70937,0.675 3.02595,1.5 0.31659,0.825 1.61496,1.5 2.88529,1.5 1.27032,0 2.48274,0.51919 2.69426,1.15375 0.56401,1.69205 21.96936,1.78349 22.53195,0.0962 0.22924,-0.6875 1.34838,-1.25 2.48697,-1.25 2.63086,0 12.41973,-4.60214 15.09984,-7.09903 1.12145,-1.0448 3.30447,-2.45978 4.85116,-3.14441 1.54669,-0.68458 2.81216,-1.58488 2.81216,-2.00062 0,-0.41574 0.9,-0.75589 2,-0.75589 1.1,0 2,-0.45 2,-1 0,-0.55 0.675,-1 1.5,-1 0.825,0 1.5,-0.42955 1.5,-0.95455 0,-0.525 1.125,-2.07954 2.5,-3.45454 1.375,-1.375 2.5,-2.78582 2.5,-3.13516 0,-0.97334 4.352,-4.3849 5.64159,-4.42248 1.57852,-0.046 2.6705,-4.95229 1.43386,-6.44236 -1.08886,-1.31199 -0.47518,-6.71388 0.85995,-7.56961 0.44733,-0.28672 1.13063,-1.9838 1.51842,-3.7713 0.3878,-1.7875 1.09822,-3.25 1.57872,-3.25 0.48049,0 1.61812,-1.56891 2.52806,-3.48646 0.90994,-1.91755 2.99654,-4.79862 4.6369,-6.40238 2.90045,-2.83572 3.35263,-2.93574 16.44214,-3.6368 l 13.45967,-0.7209 0.57081,-2.85407 c 0.53599,-2.67992 2.0968,-4.49934 10.07988,-11.74999 1.7875,-1.6235 3.25,-3.67128 3.25,-4.55061 0,-0.87933 0.675,-1.59879 1.5,-1.59879 0.825,0 1.5,-0.675 1.5,-1.5 0,-0.825 0.59165,-1.5 1.31479,-1.5 0.72313,0 2.06585,-1.575 2.98382,-3.5 0.91797,-1.925 2.35131,-3.5 3.18521,-3.5 0.94239,0 1.51618,-0.9273 1.51618,-2.45031 0,-1.34767 0.59454,-2.81017 1.32121,-3.25 1.74839,-1.05826 4.80351,-8.67481 5.73582,-14.29969 0.41023,-2.475 1.25609,-7.35002 1.87969,-10.83339 0.84866,-4.74054 0.84511,-7.75854 -0.0141,-12 -3.16117,-15.60467 -3.06244,-20.41437 0.26709,-13.0116 1.90715,4.24029 3.13805,13.30514 2.8984,21.34499 -0.15763,5.28828 -2.83571,18.09263 -4.71773,22.55635 -0.8247,1.95599 -1.36342,3.98099 -1.19714,4.5 0.47314,1.47684 -2.30576,7.47061 -4.59819,9.91777 -1.14126,1.2183 -4.77503,5.29149 -8.07503,9.05152 -3.3,3.76004 -6.85894,7.54246 -7.90875,8.40539 -9.72935,7.99738 -10.05674,10.06897 -1.59127,10.06897 l 6,0 0,-3.29705 c 0,-2.52891 0.93191,-4.20704 4,-7.20295 2.34038,-2.28532 4,-4.84593 4,-6.17156 0,-1.54883 0.45032,-2.09286 1.42331,-1.7195 0.84073,0.32262 1.93099,-0.40652 2.66364,-1.78138 1.72842,-3.24349 6.25953,-8.82749 7.16305,-8.82753 1.9376,-8e-5 -1.22493,5.55454 -7.23519,12.70776 -0.55815,0.66429 -1.01481,1.56854 -1.01481,2.00946 0,0.44091 -0.93322,1.38446 -2.07383,2.09679 -2.39168,1.49362 -4.92617,6.96921 -4.92617,10.64264 0,1.99266 0.47149,2.48906 2.25,2.36891 1.2375,-0.0836 9.36222,0.43672 18.05493,1.15627 10.56675,0.87468 16.13731,0.9759 16.8078,0.30541 1.78816,-1.78816 4.50527,-13.65532 4.77325,-20.84743 0.0713,-1.91425 1.19231,-4.16307 2.9936,-6.00547 1.58377,-1.61992 3.04627,-3.79462 3.25,-4.83266 0.20373,-1.03804 1.26525,-2.38558 2.35894,-2.99453 1.09368,-0.60895 3.06687,-1.89468 4.38486,-2.85718 1.31798,-0.9625 2.80148,-1.75 3.29666,-1.75 1.69187,0 -1.17903,3.89224 -4.17724,5.66333 -1.64604,0.97234 -2.9928,2.3093 -2.9928,2.97103 0,0.66174 -1.575,2.68873 -3.5,4.50444 -3.03956,2.86699 -3.5,3.92235 -3.5,8.02223 0,2.59651 -0.37073,4.95006 -0.82385,5.2301 -0.45312,0.28005 -0.56562,2.4441 -0.25,4.80902 0.50638,3.79429 0.95597,4.41235 3.82385,5.25665 1.7875,0.52623 3.25,1.53873 3.25,2.25 0,0.71126 0.45,1.2932 1,1.2932 0.55,0 1.81654,0.7875 2.81453,1.75 0.99799,0.9625 3.56448,2.65 5.7033,3.75 2.13883,1.1 5.15633,3.0601 6.70555,4.35578 3.53051,2.95273 5.32254,1.79139 6.31681,-4.09367 0.38309,-2.26751 1.48949,-5.53454 2.45866,-7.26007 0.96918,-1.72553 2.07103,-4.54371 2.44856,-6.26262 0.45235,-2.05951 1.14877,-2.94787 2.04219,-2.60504 2.59161,0.9945 2.3526,3.209 -1.08117,10.01765 -1.91114,3.78949 -3.72627,9.1693 -4.0641,12.04547 -0.54389,4.63062 -0.32329,5.53879 2.0226,8.32672 1.44819,1.72108 2.63307,3.6869 2.63307,4.36851 0,0.6816 1.67929,2.726 3.73175,4.54312 2.05247,1.81711 4.76783,4.70816 6.03415,6.42455 2.85685,3.87225 5.68834,5.0425 7.59276,3.13809 0.77874,-0.77874 2.43509,-3.8749 3.68078,-6.88035 2.37004,-5.71816 4.97221,-7.51395 7.12655,-4.91813 1.00761,1.21409 0.91807,1.67344 -0.47856,2.45504 -7.27783,4.07287 -8.56835,15.86928 -2.85061,26.05689 1.01497,1.80843 2.4018,4.97556 3.08184,7.03806 0.68005,2.0625 1.65155,3.75 2.15889,3.75 0.50735,0 0.92245,0.74313 0.92245,1.65139 0,1.79586 10.19903,12.34861 11.93469,12.34861 0.58592,0 1.06531,0.60062 1.06531,1.3347 0,3.43002 10.23263,9.06477 11.38617,6.26996 0.25076,-0.60756 0.49146,-0.31716 0.53488,0.64534 0.10035,2.22444 6.29558,2.40715 14.61618,-3.17322 5.61395,-4.80367 5.96277,-7.09416 5.96277,-14.46228 0,-5.41263 -0.47199,-9.89639 -1.12761,-10.71189 -0.62019,-0.77144 -1.46767,-2.52761 -1.88329,-3.90261 -0.41563,-1.375 -1.861,-4.75 -3.21194,-7.5 -2.63574,-5.36534 -6.58932,-15.41629 -8.71212,-22.14827 -1.20781,-3.83031 -6.06834,-11.40875 -7.81504,-12.18506 -0.4125,-0.18334 -0.75035,-0.85834 -0.75078,-1.5 -4.3e-4,-0.64167 -1.59207,-2.95461 -3.53697,-5.13988 -1.9449,-2.18526 -3.79334,-4.99776 -4.10763,-6.25 -0.31429,-1.25223 -1.14951,-2.27679 -1.85604,-2.27679 -1.23349,0 -2.49321,-1.98896 -3.07703,-4.85828 -0.152,-0.74705 -1.20903,-2.35105 -2.34896,-3.56445 -1.13992,-1.21339 -2.07259,-2.65537 -2.07259,-3.20439 0,-0.54901 -2.03669,-3.22001 -4.52599,-5.93554 -2.48929,-2.71554 -5.81616,-6.73734 -7.39305,-8.93734 -1.57689,-2.2 -3.92769,-4.92995 -5.22401,-6.06656 -1.29632,-1.13661 -3.48195,-3.40646 -4.85695,-5.04411 -3.20908,-3.82208 -11.35349,-10.38933 -12.88438,-10.38933 -0.64811,0 -1.43317,-0.66394 -1.74456,-1.47543 -0.59399,-1.54789 -5.7984,-4.52457 -7.91076,-4.52457 -1.07889,0 -4.4603,5.66147 -4.4603,7.46785 0,0.36608 -1.19424,2.23133 -2.65387,4.145 -1.69848,2.22682 -3.00003,3.13325 -3.61541,2.51787 -0.61539,-0.61539 -0.023,-2.19206 1.64557,-4.37964 3.04682,-3.99459 4.81528,-10.5184 2.52981,-9.3324 -0.77336,0.40132 -0.1686,-0.24124 1.3439,-1.42791 2.39954,-1.88262 2.75,-2.85196 2.75,-7.6063 0,-5.78013 2.14608,-12.38447 4.02434,-12.38447 0.67088,0 0.99481,1.31431 0.80103,3.25 -0.32201,3.2164 -0.27884,3.25142 4.17463,3.3878 2.475,0.0758 5.4,-0.41282 6.5,-1.08579 3.31498,-2.02808 10.54045,-3.41739 18.99247,-3.65185 4.39585,-0.12194 9.79585,-0.63524 12,-1.14066 2.20414,-0.50542 19.35963,-1.05991 38.12332,-1.23221 22.44613,-0.20611 34.82332,-0.69193 36.18425,-1.42028 1.13766,-0.60885 2.92292,-1.10701 3.96723,-1.10701 2.59849,0 20.18164,-5.71271 21.8533,-7.10006 0.93261,-0.774 1.24118,-2.90457 0.99792,-6.89024 -0.40133,-6.57527 -0.89549,-7.65637 -6.13074,-13.41261 -5.41503,-5.95391 -34.35014,-14.38086 -53.48775,-15.57756 -6.325,-0.39552 -15.27341,-1.71184 -19.88535,-2.92517 -9.49697,-2.49851 -11.03565,-2.69873 -31.22423,-4.06301 -11.83879,-0.80002 -16.20087,-0.70599 -23,0.49581 -5.86484,1.03665 -15.23835,1.46566 -31.14042,1.42523 -20.708,-0.0526 -22.75002,-0.21018 -22.7502,-1.75511 -1.8e-4,-1.55306 1.93291,-1.67867 22.75,-1.47822 14.98774,0.14431 23.71562,-0.16422 25.57966,-0.90424 3.68865,-1.46439 32.12731,-1.36788 40.57684,0.1377 3.52347,0.62782 7.05807,0.89139 7.85467,0.58571 1.4659,-0.56252 8.89946,1.19793 10.73903,2.54327 1.1733,0.85806 8.345,1.99926 15.75881,2.50761 15.70555,1.0769 19.61067,1.57046 23.34957,2.95108 2.25961,0.83438 6.75961,1.69472 10,1.91186 3.24039,0.21715 6.11662,0.48256 6.39162,0.5898 0.275,0.10725 0.8375,0.1417 1.25,0.0766 0.4125,-0.0651 0.75,0.52468 0.75,1.31068 0,0.92682 1.92908,1.82958 5.48867,2.56855 3.01877,0.62669 5.88806,1.85312 6.37621,2.72539 0.52627,0.94039 1.5485,1.33231 2.51133,0.96284 0.89308,-0.34271 1.62379,-0.16068 1.62379,0.40452 0,0.5652 0.42742,0.76347 0.94983,0.44061 0.5224,-0.32287 1.49213,0.43808 2.15495,1.69098 0.66282,1.25291 2.71583,4.05285 4.56224,6.2221 3.2193,3.78219 3.3401,4.22088 2.94285,10.68723 -0.45088,7.33932 -0.99127,8.86868 -3.1337,8.86868 -0.77319,0 -1.88747,0.9 -2.47617,2 -0.76008,1.42023 -2.09382,2 -4.60093,2 -1.9418,0 -4.51347,0.52879 -5.71481,1.17509 -2.65531,1.4285 -8.62806,2.84127 -14.68426,3.47337 -2.475,0.25832 -5.175,0.71254 -6,1.00937 -0.825,0.29683 -16.06454,0.72586 -33.86565,0.95339 -17.80111,0.22754 -32.7247,0.6356 -33.16353,0.90681 -0.43882,0.27121 -5.22428,0.52851 -10.63434,0.57177 -8.33403,0.0666 -10.98205,0.5203 -17.33648,2.97004 -4.125,1.59025 -8.93793,3.17869 -10.6954,3.52985 -5.78948,1.15679 -4.55249,8.23058 1.9454,11.12488 2.0625,0.91868 3.75,2.09662 3.75,2.61764 0,1.51433 3.30046,3.60136 5.75,3.63599 1.38618,0.0196 2.25,0.64841 2.25,1.63788 0,0.88334 1.09286,2.46572 2.42857,3.5164 1.33572,1.05067 3.39742,3.47793 4.58156,5.39392 1.18415,1.91598 2.80541,3.4836 3.60281,3.4836 0.79741,0 1.74142,0.7875 2.09781,1.75 0.35639,0.9625 2.36726,3.437 4.46861,5.49889 2.10135,2.06189 3.82064,4.2591 3.82064,4.8827 0,0.6236 0.83339,1.8616 1.85199,2.75111 1.01859,0.88952 2.59102,3.05248 3.49429,4.8066 0.90326,1.75411 2.43237,3.77911 3.39801,4.5 0.96564,0.72088 3.10322,4.0107 4.75017,7.3107 1.64695,3.3 3.48479,6.31808 4.08409,6.70684 0.5993,0.38877 2.40048,2.63877 4.00264,5 1.60215,2.36124 3.47681,4.65302 4.16591,5.09285 0.68909,0.43983 1.2529,1.34408 1.2529,2.00945 0,0.66537 0.84426,1.73701 1.87613,2.38143 1.15542,0.72157 2.13429,2.89324 2.54818,5.65328 0.36964,2.46489 1.7154,6.65838 2.99058,9.31888 1.27519,2.6605 2.648,5.96227 3.05068,7.33727 0.40269,1.375 1.81267,4.83463 3.1333,7.68807 1.32062,2.85345 2.40113,5.62845 2.40113,6.16667 0,0.53823 0.49244,1.14274 1.09431,1.34336 2.88656,0.96219 3.92069,19.62858 1.35945,24.53859 -0.79279,1.51982 -1.44421,3.29925 -6.32071,7.4237 -6.94108,3.86771 -11.41401,4.18225 -14.81297,4.16838 z m -123.82008,3.00641 c 1.65,-0.19144 7.1625,-0.6363 12.25,-0.98857 5.0875,-0.35227 9.25,-0.92127 9.25,-1.26445 0,-0.34318 2.02265,-1.72888 4.49479,-3.07934 3.67017,-2.00492 4.76575,-3.2853 5.97174,-6.97912 0.81233,-2.48805 1.35263,-5.19873 1.20067,-6.02373 -0.6694,-3.63417 -2.90203,-9 -3.74475,-9 -0.50735,0 -0.92245,-0.51968 -0.92245,-1.15484 0,-2.36002 -7.96297,-8.74781 -11.74312,-9.42017 -2.06628,-0.36753 -5.78188,-1.47777 -8.25688,-2.46721 -14.28389,-5.71035 -36.62965,-10.25318 -47.95261,-9.74862 -7.51849,0.33503 -8.91259,2.07088 -4.18833,5.21506 4.1686,2.77438 7.02973,10.05555 5.72755,14.57578 -1.74413,6.05433 -3.93343,7.17043 -12.89456,6.57365 -5.61095,-0.37367 -8.60636,-1.0885 -10.64544,-2.54046 -2.56175,-1.82413 -2.89893,-1.86041 -3.46958,-0.37334 -0.57457,1.4973 -0.75213,1.48294 -1.9519,-0.15784 -1.03333,-1.41316 -1.49506,-1.52148 -2.127,-0.49899 -0.50474,0.8167 -0.41386,1.06293 0.24258,0.65723 0.57734,-0.35682 1.3272,0.0743 1.66634,0.95812 0.47087,1.22708 0.93699,1.34099 1.9721,0.48192 1.02566,-0.85121 1.66553,-0.75138 2.62961,0.41027 1.0785,1.2995 1.00299,1.43118 -0.49176,0.85759 -1.68239,-0.64559 -1.68364,-0.5521 -0.0264,1.97711 0.9567,1.46011 2.16239,2.65474 2.67931,2.65474 0.51692,0 3.67241,1.9125 7.01219,4.25 11.72754,8.20806 13.0491,8.90282 19.50342,10.25324 3.57921,0.74887 7.2517,2.02682 8.16109,2.83989 0.90938,0.81306 3.15835,1.71091 4.99771,1.99521 1.83936,0.2843 3.63936,0.81389 4,1.17686 0.36064,0.36298 3.58071,0.32429 7.15571,-0.086 3.575,-0.41026 7.85,-0.90256 9.5,-1.09401 z m -29.75,-8.02454 c -2.02437,-0.52902 -2.33121,-2.20623 -0.5,-2.73304 0.6875,-0.19779 3.83922,-0.93095 7.00383,-1.62925 4.53853,-1.00148 6.28107,-1.96088 8.25,-4.54229 1.37289,-1.79996 2.49617,-3.52767 2.49617,-3.83937 0,-0.3117 0.86756,-1.43428 1.92792,-2.49464 2.27824,-2.27824 3.96656,-11.27392 2.22485,-11.85449 -0.78024,-0.26008 -0.69215,-0.82106 0.28186,-1.79507 0.77922,-0.77923 2.04159,-1.17701 2.80526,-0.88396 1.12757,0.43269 1.21559,1.88854 0.46836,7.74713 -0.50608,3.96787 -1.32246,7.36431 -1.8142,7.54764 -0.49173,0.18334 -0.89405,0.79047 -0.89405,1.34919 0,1.24856 -8.5378,9.67195 -12.23137,12.06748 -2.57298,1.66874 -6.21593,2.05442 -10.01863,1.06067 z m -16.83948,-18.94277 c 3.63759,-0.72752 5.54853,-3.58043 5.24072,-7.82407 -0.22859,-3.15137 -2.66061,-6.54383 -4.69122,-6.54383 -0.6765,0 -1.99176,-1.16259 -2.92279,-2.58353 -1.95212,-2.9793 -6.17017,-4.96729 -12.55752,-5.91842 -8.86062,-1.31941 -9.85022,-1.05222 -11.59834,3.13163 -1.22034,2.92068 -1.28642,4.18534 -0.33829,6.47432 1.72595,4.16682 5.56336,7.59959 9.27345,8.2956 1.79014,0.33584 4.81376,1.71124 6.71914,3.05647 3.65355,2.57945 5.72016,2.94276 10.87485,1.91183 z m 105.21593,-17.98904 c 1.54134,-1.4767 2.56688,-3.06605 2.27898,-3.53188 -0.28791,-0.46584 -0.1169,-0.84698 0.38001,-0.84698 0.49692,0 2.14284,-1.06495 3.65762,-2.36656 2.70403,-2.3235 2.73309,-2.46796 1.59726,-7.93924 -0.9611,-4.62957 -3.27939,-9.14361 -6.00585,-11.6942 -0.29396,-0.275 -1.01817,-1.4 -1.60936,-2.5 -0.59119,-1.1 -2.5244,-2.74078 -4.29603,-3.64617 -1.77162,-0.9054 -6.21984,-4.41273 -9.88491,-7.79408 -4.35187,-4.01496 -7.3716,-6.05657 -8.70398,-5.88468 -1.1221,0.14477 -2.6419,-0.11118 -3.37732,-0.56879 -0.76622,-0.47677 -1.79231,-0.37684 -2.4032,0.23405 -0.62586,0.62586 -1.72541,0.72278 -2.66287,0.23471 -0.87824,-0.45724 -6.3218,-1.10403 -12.0968,-1.43731 -5.775,-0.33329 -11.85,-0.88266 -13.5,-1.22083 -3.88309,-0.79586 -43.09513,-0.84064 -51.31237,-0.0586 -7.27059,0.69195 -8.18763,1.09139 -8.18763,3.56635 0,1.5141 1.0929,1.88796 6.75,2.30899 12.11226,0.90147 18.04819,6.14744 18.37805,16.2419 0.19698,6.02793 -1.42402,9.39469 -5.89198,12.23743 -1.50484,0.95746 -2.9825,2.08043 -3.28369,2.49549 -0.30119,0.41506 -1.46454,0.57807 -2.58523,0.36225 -1.12068,-0.21583 -2.67426,0.0527 -3.45238,0.59673 -1.03912,0.7265 -0.68459,0.87241 1.33523,0.54952 1.5125,-0.24179 2.75,-0.0255 2.75,0.48073 0,0.50619 0.41891,0.66145 0.9309,0.34502 0.512,-0.31644 1.19854,-0.1423 1.52564,0.38697 0.32711,0.52927 2.2707,0.98103 4.3191,1.00392 2.0484,0.0229 5.52436,0.0786 7.72436,0.12384 11.98133,0.24632 20.5,-1.45435 20.5,-4.09262 0,-0.53065 0.65334,-0.96482 1.45186,-0.96482 1.98098,0 8.33134,-6.67769 10.63785,-11.18618 1.86109,-3.63784 1.73946,-9.81382 -0.19327,-9.81382 -0.46946,0 -0.35721,-1.08939 0.24945,-2.42086 0.60666,-1.33147 1.66652,-2.20462 2.35524,-1.94033 1.50151,0.57618 2.50058,8.15038 1.6248,12.31808 -0.69095,3.28813 -8.04157,14.01994 -9.62593,14.05373 -1.39979,0.0299 -7.06959,5.2751 -7.01463,6.48938 0.10353,2.28768 1.87547,3.66417 4.15571,3.22828 1.32366,-0.25303 2.64747,-0.0704 2.9418,0.40583 0.29434,0.47624 1.39287,0.86589 2.44119,0.86589 1.04832,0 4.05926,0.74981 6.69098,1.66624 6.24301,2.17398 15.38378,2.88351 33.69695,2.61564 14.68395,-0.21478 14.95486,-0.25918 17.71445,-2.90302 z M 410.69547,911.32135 c 8.59492,-1.87081 9.74362,-4.34146 7.23587,-15.56313 -0.75539,-3.38025 -1.39955,-4.09464 -5.64505,-6.26053 -5.68768,-2.90163 -20.75754,-2.88496 -23.24975,0.0257 -0.94723,1.10629 -1.72224,2.62619 -1.72224,3.37756 0,0.75136 -0.6933,1.9415 -1.54066,2.64475 -1.17891,0.97841 -1.47241,2.9382 -1.25,8.34664 0.26297,6.39462 0.52798,7.18597 2.78162,8.30616 2.94501,1.46384 14.65216,1.0248 23.39021,-0.87717 z m 139.43325,-8.55127 c -0.83062,-0.96696 -1.89004,-2.4331 -2.35427,-3.2581 -0.72753,-1.2929 -0.61046,-1.31051 0.84789,-0.12756 1.15181,0.9343 2.09102,1.05574 2.94196,0.38039 0.6875,-0.54562 2.9375,-1.29612 5,-1.66775 2.90698,-0.5238 3.75,-0.35268 3.75,0.7612 0,0.7903 -1.2375,1.74575 -2.75,2.12322 -1.5125,0.37748 -3.46446,1.3299 -4.33769,2.11651 -1.38455,1.2472 -1.78091,1.20524 -3.09789,-0.32791 z m -25.81442,-35.2581 c 0,-1.65882 3.87577,-5 5.8,-5 0.99,0 2.30079,-0.50079 2.91287,-1.11287 1.09897,-1.09897 3.28713,-0.45755 3.28713,0.96357 0,0.64849 -10.30706,6.1493 -11.52215,6.1493 -0.26282,0 -0.47785,-0.45 -0.47785,-1 z M 451.35712,662.48906 c 2.82881,-1.51393 3.82904,-3.98027 5.49983,-13.56132 1.4052,-8.05798 1.38685,-8.91763 -0.26688,-12.5084 -2.07359,-4.50243 -2.54751,-4.67688 -4.50257,-1.65736 -2.03906,3.14924 -2.7612,6.61187 -3.34824,16.05468 -0.28022,4.50743 -0.72404,9.20782 -0.98628,10.44532 -0.51807,2.44482 0.6107,2.82912 3.60414,1.22708 z m 61.95718,130.52292 c 0,-1.62953 0.55953,-2.5 1.60699,-2.5 1.05452,0 1.39831,0.5438 1,1.58179 -0.33385,0.86998 -0.60699,1.99498 -0.60699,2.5 0,0.50501 -0.45,0.91821 -1,0.91821 -0.55,0 -1,-1.125 -1,-2.5 z m 47.18045,-1.75 c 0.23112,-1.62737 1.10021,-2.33946 3.14062,-2.57328 2.81327,-0.32239 2.81641,-0.31617 1.13499,2.25 -2.12158,3.23794 -4.71743,3.43422 -4.27561,0.32328 z m -46.4252,-5.25 c 0.54371,-2.84422 1.74048,-3.25648 2.64101,-0.90976 0.73933,1.92669 -0.0508,3.40976 -1.81661,3.40976 -0.8499,0 -1.13629,-0.86846 -0.8244,-2.5 z m 49.05619,-1.53896 c 1.91049,-1.77989 2.18856,-3.0893 2.18856,-10.30572 0,-7.2476 -0.30821,-8.68452 -2.5,-11.65532 -2.2169,-3.00484 -3.25612,-6 -2.08179,-6 1.49109,0 3.58179,1.40497 3.58179,2.40699 0,0.65615 0.53544,1.72845 1.18988,2.38289 1.29359,1.29359 1.31572,1.36953 2.53797,8.71012 0.94072,5.64977 0.94316,5.32469 -0.0881,11.75 -0.72086,4.49156 -0.93249,4.75 -3.88962,4.75 l -3.12729,0 2.18856,-2.03896 z m 44.29387,-3.46104 c 0.49208,-1.925 1.31838,-5.16848 1.83623,-7.20772 0.51784,-2.03925 0.70284,-5.41425 0.4111,-7.5 -0.63868,-4.5662 0.90223,-5.0054 2.66133,-0.75854 1.40151,3.38354 0.6906,13.2314 -0.99574,13.79352 -0.56003,0.18667 -1.01823,1.42691 -1.01823,2.75607 0,1.70523 -0.55778,2.41667 -1.89469,2.41667 -1.66911,0 -1.78817,-0.41671 -1,-3.5 z m -93.93901,-1.22199 c -1.42627,-2.71499 -2.47351,-10.27801 -1.42318,-10.27801 2.0958,0 5.05624,10.38793 3.2743,11.48923 -0.50439,0.31173 -1.33739,-0.23332 -1.85112,-1.21122 z m -6.85733,-13.65439 c -4.08996,-2.01482 -6.09549,-5.01949 -4.15208,-6.22059 0.53303,-0.32942 1.76371,0.12013 2.73486,0.99901 0.97115,0.87888 2.21676,1.59796 2.76801,1.59796 1.06501,0 3.96649,4.75738 3.25841,5.34262 -0.22999,0.19009 -2.30413,-0.58346 -4.6092,-1.719 z m -36.19297,-45.21533 -0.116,-6.09171 4.11502,-1.2329 c 3.07717,-0.92194 4.39352,-1.9707 5.21924,-4.15828 0.60732,-1.60897 1.41886,-2.9254 1.80342,-2.9254 1.205,0 4.60337,-6.25147 6.7763,-12.46534 3.62612,-10.36952 2.2926,-30.00399 -2.51938,-37.09484 -1.31703,-1.94075 -2.3946,-4.09913 -2.3946,-4.7964 0,-1.93349 -3.92949,-9.64342 -4.91493,-9.64342 -0.47754,0 -1.13743,-1.07248 -1.46642,-2.38328 -0.32899,-1.3108 -1.95277,-3.83339 -3.60841,-5.60575 -2.62403,-6.35291 -9.8878,-7.01097 -9.8878,-7.01097 -3.91681,0 -5.64279,2.1592 -4.07205,5.09416 1.5441,2.88518 0.83055,24.4249 -0.86531,26.12076 -0.6518,0.6518 -1.18859,2.10758 -1.19288,3.23508 -0.008,2.10818 -3.84082,4.55 -7.14187,4.55 -0.96302,0 -2.20963,0.7875 -2.77023,1.75 -0.56061,0.9625 -1.03297,1.38036 -1.04969,0.92857 -0.0464,-1.2548 -3.03041,2.01572 -3.03041,3.32143 0,0.62857 -0.5625,1.70612 -1.25,2.39455 -0.6875,0.68843 -2.6,2.98241 -4.25,5.09774 -1.65,2.11533 -3.87342,4.55743 -4.94093,5.42688 -1.0675,0.86946 -3.0925,2.87882 -4.5,4.46526 -1.40749,1.58643 -3.79657,4.02331 -5.30907,5.41529 -1.5125,1.39198 -2.75,3.30542 -2.75,4.25208 0,1.09 -1.00848,1.90425 -2.75,2.22035 -3.37412,0.61244 -8.79974,2.48357 -12.58104,4.33883 -1.55707,0.76396 -3.46957,1.38902 -4.25,1.38902 -0.78043,0 -1.41896,0.44143 -1.41896,0.98095 0,0.53952 -1.13075,1.26475 -2.51277,1.61161 -1.38203,0.34687 -2.84453,1.14294 -3.25,1.76905 -0.94127,1.45346 -6.61404,4.6916 -16.73723,9.55397 -15.71437,7.54794 -21.19519,9.92506 -25.56652,11.08865 -2.43842,0.64907 -5.86596,2.26365 -7.61676,3.58795 -1.7508,1.3243 -3.5508,2.41593 -4,2.42585 -0.97636,0.0215 -7.30683,7.4949 -7.33965,8.66471 -0.0341,1.21479 -8.47824,17.85342 -9.86841,19.44501 -2.25656,2.58351 -12.42386,18.36736 -15.69959,24.37225 -7.05147,12.92638 -21.40907,42.20517 -21.40907,43.65854 0,1.96698 -3.64839,6.21939 -4.35503,5.07603 -0.75189,-1.21658 2.3069,-11.23457 3.43025,-11.23457 0.50863,0 0.92478,-0.6375 0.92478,-1.41667 0,-0.77916 0.3375,-1.56666 0.75,-1.75 1.11374,-0.49499 6.07175,-11.8481 6.76758,-15.49676 0.47702,-2.50125 0.22433,-3.28324 -1.20714,-3.73579 -0.99574,-0.31479 -21.98316,-0.52397 -46.6387,-0.46483 -31.92623,0.0766 -45.15111,-0.21532 -45.95,-1.01421 -0.82899,-0.82899 -0.48233,-1.13173 1.32826,-1.16001 1.3475,-0.0211 22.78071,-0.004 47.62935,0.0368 24.84864,0.0413 46.33163,-0.21414 47.73997,-0.56762 1.9185,-0.48151 2.82357,-1.61919 3.60919,-4.53678 0.57672,-2.14176 1.48123,-3.89411 2.01003,-3.89411 0.5288,0 0.96146,-0.6199 0.96146,-1.37756 0,-0.75765 0.675,-1.93775 1.5,-2.62244 0.825,-0.68469 1.5,-2.31479 1.5,-3.62244 0,-1.30766 0.51289,-2.37756 1.13976,-2.37756 1.48658,0 3.31786,-2.37358 6.47025,-8.3863 1.409,-2.68746 3.57072,-5.97435 4.80383,-7.30421 2.30016,-2.48063 11.58616,-20.37118 11.58616,-22.32208 0,-0.59761 1.575,-2.70829 3.5,-4.6904 1.925,-1.98211 3.5,-3.95448 3.5,-4.38304 0,-0.42857 0.82067,-1.03969 1.82371,-1.35804 1.00305,-0.31835 2.69055,-1.36118 3.75,-2.31739 1.05946,-0.95621 3.05129,-2.23869 4.42629,-2.84995 8.10126,-3.60146 10.27078,-4.38861 12.09585,-4.38861 2.30481,0 13.2302,-4.90705 13.73748,-6.17008 0.18334,-0.45645 1.19584,-0.82992 2.25,-0.82992 1.05417,0 1.91667,-0.47656 1.91667,-1.05902 0,-0.58246 0.4317,-0.79221 0.95932,-0.46612 1.18878,0.7347 5.0671,-1.3788 6.83521,-3.72486 0.72538,-0.9625 1.96836,-1.75 2.76217,-1.75 0.79382,0 1.4433,-0.66088 1.4433,-1.46862 0,-0.87893 0.58817,-1.24291 1.46485,-0.90649 1.42833,0.5481 11.91757,-4.81661 13.07304,-6.68619 0.31908,-0.51629 2.07349,-0.9387 3.89868,-0.9387 1.8252,0 3.85473,-0.64607 4.51008,-1.43572 0.65535,-0.78965 2.51045,-1.7254 4.12245,-2.07946 2.00036,-0.43935 2.9309,-1.25349 2.9309,-2.56428 0,-1.05629 0.48214,-1.92054 1.07143,-1.92054 1.35281,0 3.92857,-2.53158 3.92857,-3.86118 0,-0.55223 0.9,-1.28969 2,-1.63882 1.1,-0.34913 2,-1.46043 2,-2.46956 0,-1.15121 1.1505,-2.23586 3.08804,-2.91129 1.69843,-0.59207 3.31777,-1.95496 3.59854,-3.02865 0.28078,-1.07368 1.14116,-2.19416 1.91196,-2.48994 0.7708,-0.29578 1.40146,-1.17877 1.40146,-1.96219 0,-0.78341 0.66389,-1.67915 1.47531,-1.99052 0.81143,-0.31138 1.98985,-2.60952 2.61872,-5.10699 0.62887,-2.49747 1.56375,-4.54086 2.07752,-4.54086 0.51376,0 0.91711,-2.8125 0.89633,-6.25 -0.0362,-5.99098 1.88264,-19.61104 3.20513,-22.75 0.34759,-0.825 0.76585,-2.4 0.92948,-3.5 0.32816,-2.20602 2.23913,-4.61224 3.49394,-4.39944 2.43852,0.41355 5.34113,-0.28098 6.65178,-1.59163 1.00581,-1.00581 2.49356,-1.29058 4.57143,-0.875 8.01019,0.82864 11.09633,4.11607 11.09633,4.11607 0.0142,1.55427 3.00501,5.69623 7.46189,10.33389 0.83717,0.87114 1.52214,2.33364 1.52214,3.25 0,0.91636 0.43266,1.66611 0.96146,1.66611 0.5288,0 1.46438,1.86772 2.07906,4.1505 0.61469,2.28277 1.75704,4.78991 2.53855,5.57143 0.78151,0.78151 1.42093,2.42378 1.42093,3.6495 0,1.22571 0.49012,2.71869 1.08915,3.31772 0.59904,0.59904 1.33789,6.48777 1.64189,13.08606 0.45,9.76701 0.2107,13.27272 -1.28746,18.86085 -1.01211,3.77517 -2.3565,7.31394 -2.98752,7.86394 -0.63102,0.55 -1.73561,2.49687 -2.45465,4.32638 -1.56379,3.97892 -6.84469,10.17362 -8.67286,10.17362 -1.39905,0 -5.78617,6.3494 -6.60153,9.55426 0,0 -0.37945,0.17423 -0.72125,1.29727 -0.85284,2.65551 -2.68359,6.25634 -5.94242,11.05518 -2.2295,3.28309 -4.50583,6.24872 -5.0585,6.59029 -2.34639,1.45015 -0.6659,2.503 3.99515,2.503 3.77778,0 5,0.36667 5,1.5 0,1.19672 -1.48,1.5 -7.32,1.5 -6.80842,0 -7.59466,0.2294 -11.25,3.2824 -2.1615,1.80532 -5.055,3.83399 -6.43,4.50814 -3.48361,1.708 -9.31788,5.21938 -10.41997,6.27131 -0.55811,0.53271 -0.42712,2.56157 0.33304,5.15812 0.68915,2.35402 1.98297,6.75503 2.87515,9.78003 0.89219,3.025 2.09932,5.95 2.68252,6.5 1.37435,1.29611 5.34199,22.35104 6.86273,36.41824 0.45174,4.17873 -1.66805,11.63335 -4.34821,15.29127 -1.09189,1.49023 -1.98526,3.17773 -1.98526,3.75 0,0.57227 -0.45,1.04049 -1,1.04049 -0.55,0 -1,0.675 -1,1.5 0,0.825 -0.43313,1.5 -0.9625,1.5 -0.52938,0 -3.59483,2.59983 -6.81212,5.7774 -5.37668,5.3103 -18.14556,13.21408 -21.37161,13.22876 -0.74458,0.003 -2.61028,0.66156 -4.14601,1.46261 -1.53573,0.80105 -4.46073,1.76185 -6.5,2.13512 -3.69238,0.67585 -3.70011,0.67006 -1.8638,-1.39517 1.01417,-1.14061 2.41865,-1.85331 3.12106,-1.58377 0.7024,0.26954 1.90891,-0.14174 2.68113,-0.91395 0.77221,-0.77222 3.03458,-1.70993 5.02749,-2.0838 1.99291,-0.37387 4.75259,-1.56794 6.13264,-2.65348 1.38005,-1.08555 2.94926,-1.97372 3.48714,-1.97372 3.20682,0 16.20177,-10.98085 16.20511,-13.69346 8.1e-4,-0.65641 1.36999,-2.00188 3.04264,-2.98993 1.67264,-0.98805 3.30117,-2.92599 3.61896,-4.30653 0.31779,-1.38055 1.1822,-3.48069 1.9209,-4.66699 1.39517,-2.24055 1.82715,-8.59876 1.11037,-16.34309 -0.76154,-8.22781 -2.94798,-20.48684 -3.82569,-21.45 -0.47614,-0.5225 -0.86571,-1.99111 -0.86571,-3.26357 0,-1.27246 -0.40515,-3.09496 -0.90034,-4.05 -0.49518,-0.95504 -1.73076,-4.43643 -2.74573,-7.73643 -2.01456,-6.54998 -2.95423,-7.74162 -5.60393,-7.10662 -0.9625,0.23066 -1.75,0.0665 -1.75,-0.36488 0,-1.76255 3.07304,-7.974 4.31583,-8.72345 0.73425,-0.44278 1.62152,-1.58496 1.97173,-2.53819 0.39906,-1.08622 1.23457,-1.50373 2.23836,-1.11854 0.99871,0.38324 2.16362,-0.18776 3.09456,-1.51686 0.82111,-1.1723 2.12243,-2.13146 2.89181,-2.13146 3.78434,0 16.48771,-11.69213 16.48771,-15.17522 0,-1.17102 0.83598,-2.23063 2,-2.53503 1.1,-0.28766 2,-1.12317 2,-1.85669 0,-0.73352 0.61012,-1.69354 1.35582,-2.13337 0.7457,-0.43983 2.2082,-2.59969 3.25,-4.79969 l 3.45668,-4.58594 z m -11.80415,-3.80186 c -2.84355,-1.28564 -4.59046,-2.89088 -5.44127,-5 -0.68923,-1.70854 -1.84206,-3.46629 -2.56186,-3.90612 -1.53757,-0.93953 -1.75501,-5.30646 -0.30872,-6.20031 0.55,-0.33992 1.05625,0.0835 1.125,0.94098 0.0688,0.85746 0.18125,1.92286 0.25,2.36756 0.32805,2.12192 5.79319,7.3409 7.14425,6.82245 0.89343,-0.34284 1.48075,0.0143 1.48075,0.90039 0,0.80774 0.58529,1.46862 1.30064,1.46862 2.17595,0 6.68326,2.42925 6.69156,3.60648 0.0117,1.65501 -4.9392,1.14354 -9.68035,-1.00005 z"
       id="path5545"
       inkscape:connector-curvature="0"
       sodipodi:nodetypes="sscsssssssssssssssscsssssssscssssscssssssssccsssssssssssssscssssssssssssssssscscsssssscsssssssssssssssssssscsscssssssssscssssscssssssssssssssssssssscssscssssssssscssssssssscssssssssssssssssssssssssssssscssssscsssssssssssscsssssssssssssssssssssssssssssssssscsssssscsssssssssssssssssssssssssssssssssssssssscscsssssssssssssssscsssssssssssssccsssssssssscsssssssssssssssssssssssssssssssssscsssscssssssssscssssssscsssssssccssscsssssssssssssssssssscssssssssssscsssssssscccsssscsssssssscssssccssssssssccsscsscssssssssssssssssccsssssscssssccsssssssssssssssscssssssssssssssssscssssssssssccssssssssssssccsssssssssssssssssscsssssssssssssssssssssssssssssccsssscsssscs" />
  </g>
</svg>
