<?xml version="1.0" encoding="UTF-8" standalone="no"?>
<!-- Created with Inkscape (http://www.inkscape.org/) -->

<svg
   xmlns:dc="http://purl.org/dc/elements/1.1/"
   xmlns:cc="http://creativecommons.org/ns#"
   xmlns:rdf="http://www.w3.org/1999/02/22-rdf-syntax-ns#"
   xmlns:svg="http://www.w3.org/2000/svg"
   xmlns="http://www.w3.org/2000/svg"
   xmlns:sodipodi="http://sodipodi.sourceforge.net/DTD/sodipodi-0.dtd"
   xmlns:inkscape="http://www.inkscape.org/namespaces/inkscape"
   id="svg2"
   version="1.1"
   inkscape:version="0.91 r13725"
   xml:space="preserve"
   width="642.047"
   height="307.1626"
   viewBox="0 0 642.047 307.1626"
   sodipodi:docname="operating-points.svg"><metadata
     id="metadata8"><rdf:RDF><cc:Work
         rdf:about=""><dc:format>image/svg+xml</dc:format><dc:type
           rdf:resource="http://purl.org/dc/dcmitype/StillImage" /><dc:title></dc:title></cc:Work></rdf:RDF></metadata><defs
     id="defs6"><clipPath
       clipPathUnits="userSpaceOnUse"
       id="clipPath18"><path
         d="m 0,2.324581e-5 779.8909,0 0,539.99999675419 L 0,540.00002 0,2.324581e-5 Z"
         id="path20"
         inkscape:connector-curvature="0" /></clipPath></defs><sodipodi:namedview
     pagecolor="#ffffff"
     bordercolor="#666666"
     borderopacity="1"
     objecttolerance="10"
     gridtolerance="10"
     guidetolerance="10"
     inkscape:pageopacity="0"
     inkscape:pageshadow="2"
     inkscape:window-width="2560"
     inkscape:window-height="1304"
     id="namedview4"
     showgrid="false"
     fit-margin-top="0"
     fit-margin-left="0"
     fit-margin-right="0"
     fit-margin-bottom="0"
     inkscape:zoom="0.98890193"
     inkscape:cx="637.50459"
     inkscape:cy="326.83401"
     inkscape:window-x="0"
     inkscape:window-y="64"
     inkscape:window-maximized="1"
     inkscape:current-layer="g4473" /><g
     id="g10"
     inkscape:groupmode="layer"
     inkscape:label="ian-dc-motor-datasheet"
     transform="matrix(1.25,0,0,-1.25,-167.7758,348.85673)"><g
       id="g12" /><g
       id="g4473"
       transform="translate(-67.95416,8.089781)"><g
         transform="matrix(7.874014e-5,0,0,-7.874014e-5,310.1041,265.3705)"
         id="g24"><path
           inkscape:connector-curvature="0"
           id="path26"
           style="fill:none;stroke:#cd665f;stroke-width:38100;stroke-linecap:butt;stroke-linejoin:round;stroke-miterlimit:10;stroke-dasharray:none;stroke-opacity:1"
           d="M 0.00557446,-0.01988858 4837775,1800225" /></g><g
         transform="translate(378.3006,103.0205)"
         id="g100"><text
           id="text102"
           style="font-variant:normal;font-weight:normal;font-size:20px;font-family:Arial;-inkscape-font-specification:ArialMT;writing-mode:lr-tb;fill:#0000ff;fill-opacity:1;fill-rule:nonzero;stroke:none"
           transform="matrix(1,0,0,-1,0,-20)"><tspan
             id="tspan104"
             sodipodi:role="line"
             y="0"
             x="0 11.124 22.247999 32.248001 43.372002 47.816002 58.939999 65.599998 76.723999 82.279999 86.723999 97.848 108.972">deceleration </tspan></text>
</g><g
         transform="matrix(7.874014e-5,0,0,-7.874014e-5,363.4583,161.9955)"
         id="g106"><path
           inkscape:connector-curvature="0"
           id="path108"
           style="fill:none;stroke:#0433ff;stroke-width:38100;stroke-linecap:butt;stroke-linejoin:round;stroke-miterlimit:10;stroke-dasharray:none;stroke-opacity:1"
           d="M -0.1027426,0.03186911 -0.1027426,1287463" /></g><path
         inkscape:connector-curvature="0"
         id="path110"
         style="fill:#0433ff;fill-opacity:1;fill-rule:evenodd;stroke:none"
         d="m 367.9583,70.62051 -4.5,-15 -4.5,15 9,0 z" /><path
         inkscape:connector-curvature="0"
         id="path112"
         style="fill:#0433ff;fill-opacity:1;fill-rule:evenodd;stroke:none"
         d="m 356.9583,161.9956 c 0,3.3137 2.9101,6 6.5,6 3.5898,0 6.5,-2.6863 6.5,-6 0,-3.3137 -2.9102,-6 -6.5,-6 -3.5899,0 -6.5,2.6863 -6.5,6 z" /><path
         inkscape:connector-curvature="0"
         id="path114"
         style="fill:#0433ff;fill-opacity:1;fill-rule:evenodd;stroke:none"
         d="m 434.9583,161.9956 c 0,3.3137 2.9102,6 6.5,6 3.5899,0 6.5,-2.6863 6.5,-6 0,-3.3137 -2.9101,-6 -6.5,-6 -3.5898,0 -6.5,2.6863 -6.5,6 z" /><path
         inkscape:connector-curvature="0"
         id="path116"
         style="fill:#ffffff;fill-opacity:1;fill-rule:evenodd;stroke:none"
         d="m 542.0373,106.6205 123.4355,0 0,-31.50475 -123.4355,0 0,31.50475 z" /><g
         transform="translate(550.2374,103.0205)"
         id="g118"><text
           id="text120"
           style="font-variant:normal;font-weight:normal;font-size:20px;font-family:Arial;-inkscape-font-specification:ArialMT;writing-mode:lr-tb;fill:#0000ff;fill-opacity:1;fill-rule:nonzero;stroke:none"
           transform="matrix(1,0,0,-1,0,-20)"><tspan
             id="tspan122"
             sodipodi:role="line"
             y="0"
             x="0 11.124 21.124001 31.124001 42.248001 46.692001 57.816002 64.475998 75.599998 81.155998 85.599998 96.723999 107.848">acceleration </tspan></text>
</g><g
         transform="matrix(7.874014e-5,0,0,7.874014e-5,538.9583,55.62047)"
         id="g124"><path
           inkscape:connector-curvature="0"
           id="path126"
           style="fill:none;stroke:#0433ff;stroke-width:38100;stroke-linecap:butt;stroke-linejoin:round;stroke-miterlimit:10;stroke-dasharray:none;stroke-opacity:1"
           d="M -0.1475425,-0.00849274 -0.1475425,1287463" /></g><path
         inkscape:connector-curvature="0"
         id="path128"
         style="fill:#0433ff;fill-opacity:1;fill-rule:evenodd;stroke:none"
         d="m 543.4583,146.9955 -4.5,15 -4.5,-15 9,0 z" /><path
         inkscape:connector-curvature="0"
         id="path130"
         style="fill:#0433ff;fill-opacity:1;fill-rule:evenodd;stroke:none"
         d="m 532.4583,161.9956 c 0,3.3137 2.9101,6 6.5,6 3.5898,0 6.5,-2.6863 6.5,-6 0,-3.3137 -2.9102,-6 -6.5,-6 -3.5899,0 -6.5,2.6863 -6.5,6 z" /><g
         transform="translate(201.3348,262.9704)"
         id="g132"><text
           id="text134"
           style="font-variant:normal;font-weight:normal;font-size:20px;font-family:Arial;-inkscape-font-specification:ArialMT;writing-mode:lr-tb;fill:#000000;fill-opacity:1;fill-rule:nonzero;stroke:none"
           transform="matrix(1,0,0,-1,0,-20)"><tspan
             style="font-style:normal;font-variant:normal;font-weight:500;font-stretch:normal;font-family:FlamaLight;-inkscape-font-specification:'FlamaLight Medium'"
             id="tspan136"
             sodipodi:role="line"
             y="0"
             x="0 10 21.124001 32.248001 43.372002 54.495998 60.051998 71.176003">speed n </tspan></text>
</g><g
         transform="translate(615.6335,49.14553)"
         id="g138"><text
           id="text140"
           style="font-variant:normal;font-weight:normal;font-size:20px;font-family:Arial;-inkscape-font-specification:ArialMT;writing-mode:lr-tb;fill:#000000;fill-opacity:1;fill-rule:nonzero;stroke:none"
           transform="matrix(1,0,0,-1,0,-20)"><tspan
             style="font-style:normal;font-variant:normal;font-weight:500;font-stretch:normal;font-family:FlamaLight;-inkscape-font-specification:'FlamaLight Medium'"
             id="tspan142"
             sodipodi:role="line"
             y="0"
             x="0 5.5560002 16.68 23.34 34.464001 45.588001 56.712002 62.268002 78.928001">torque M </tspan></text>
</g><g
         transform="matrix(-7.874014e-5,0,0,7.874014e-5,291.6874,57.49561)"
         id="g144"><path
           inkscape:connector-curvature="0"
           id="path146"
           style="fill:none;stroke:#000000;stroke-width:28575;stroke-linecap:butt;stroke-linejoin:round;stroke-miterlimit:10;stroke-dasharray:none;stroke-opacity:1"
           d="M -0.04455554,-0.03885745 1.118164,2682875" /></g><path
         inkscape:connector-curvature="0"
         id="path148"
         style="fill:#000000;fill-opacity:1;fill-rule:evenodd;stroke:none"
         d="m 286.0623,259.7456 5.625,11.25 5.625,-11.25 -11.25,0 z" /><g
         transform="matrix(0,-7.874014e-5,7.874014e-5,0,291.6874,55.62055)"
         id="g150"><path
           inkscape:connector-curvature="0"
           id="path152"
           style="fill:none;stroke:#000000;stroke-width:28575;stroke-linecap:butt;stroke-linejoin:round;stroke-miterlimit:10;stroke-dasharray:none;stroke-opacity:1"
           d="M -0.00888718,0.04455554 1.008493,5357812" /></g><path
         inkscape:connector-curvature="0"
         id="path154"
         style="fill:#000000;fill-opacity:1;fill-rule:evenodd;stroke:none"
         d="m 704.5624,49.99547 11.25,5.625 -11.25,5.625 0,-11.25 z" /><g
         transform="matrix(-7.874014e-5,0,0,-7.874014e-5,369.1458,242.9956)"
         id="g156"><path
           inkscape:connector-curvature="0"
           id="path158"
           style="fill:none;stroke:#0433ff;stroke-width:57150;stroke-linecap:butt;stroke-linejoin:round;stroke-miterlimit:10;stroke-dasharray:none;stroke-opacity:1"
           d="M 24866.38,51456.72 288135.6,596243.5" /></g><path
         inkscape:connector-curvature="0"
         id="path160"
         style="fill:#0433ff;fill-opacity:1;fill-rule:evenodd;stroke:none"
         d="m 369.3494,227.9035 -0.2036,15.0921 -11.9515,-9.2181 12.1551,-5.874 z" /><path
         inkscape:connector-curvature="0"
         id="path162"
         style="fill:#0433ff;fill-opacity:1;fill-rule:evenodd;stroke:none"
         d="m 344.2964,207.0877 0.2036,-15.0921 11.9515,9.2181 -12.1551,5.874 z" /><g
         transform="translate(372.0261,222.0205)"
         id="g164"><text
           id="text166"
           style="font-variant:normal;font-weight:normal;font-size:18px;font-family:Arial;-inkscape-font-specification:ArialMT;writing-mode:lr-tb;fill:#0000ff;fill-opacity:1;fill-rule:nonzero;stroke:none"
           transform="matrix(1,0,0,-1,0,-18)"><tspan
             id="tspan168"
             sodipodi:role="line"
             y="0"
             x="0 14.994 25.0056 30.006001 40.017601 46.0116 51.012001 60.012001 70.023598 74.023201 79.023598 89.035202 99.046799 109.0584">motor voltage </tspan></text>
</g><g
         transform="matrix(7.874014e-5,0,0,-7.874014e-5,291.6875,214.3705)"
         id="g170"><path
           inkscape:connector-curvature="0"
           id="path172"
           style="fill:none;stroke:#cd665f;stroke-width:19050;stroke-linecap:butt;stroke-linejoin:round;stroke-miterlimit:10;stroke-dasharray:76200, 57150;stroke-dashoffset:0;stroke-opacity:1"
           d="M -0.1802979,0.0797208 4758664,1728787" /></g><g
         transform="matrix(7.874014e-5,0,0,-7.874014e-5,291.6874,151.9955)"
         id="g174"><path
           inkscape:connector-curvature="0"
           id="path176"
           style="fill:none;stroke:#cd665f;stroke-width:19050;stroke-linecap:butt;stroke-linejoin:round;stroke-miterlimit:10;stroke-dasharray:76200, 57150;stroke-dashoffset:0;stroke-opacity:1"
           d="M 0.04455554,0.05140036 3510095,1223963" /></g></g></g></svg>