<?xml version="1.0" encoding="UTF-8" standalone="no"?>
<svg
   xmlns:dc="http://purl.org/dc/elements/1.1/"
   xmlns:cc="http://creativecommons.org/ns#"
   xmlns:rdf="http://www.w3.org/1999/02/22-rdf-syntax-ns#"
   xmlns:svg="http://www.w3.org/2000/svg"
   xmlns="http://www.w3.org/2000/svg"
   xmlns:sodipodi="http://sodipodi.sourceforge.net/DTD/sodipodi-0.dtd"
   xmlns:inkscape="http://www.inkscape.org/namespaces/inkscape"
   version="1.1"
   viewBox="0 0 405.11801 192.6667"
   stroke-miterlimit="10"
   id="svg2"
   inkscape:version="0.91 r13725"
   sodipodi:docname="precious-metal-commutators.svg"
   width="405.11801"
   height="192.6667"
   style="fill:none;stroke:none;stroke-linecap:square;stroke-miterlimit:10">
  <metadata
     id="metadata237">
    <rdf:RDF>
      <cc:Work
         rdf:about="">
        <dc:format>image/svg+xml</dc:format>
        <dc:type
           rdf:resource="http://purl.org/dc/dcmitype/StillImage" />
        <dc:title></dc:title>
      </cc:Work>
    </rdf:RDF>
  </metadata>
  <defs
     id="defs235" />
  <sodipodi:namedview
     pagecolor="#ffffff"
     bordercolor="#666666"
     borderopacity="1"
     objecttolerance="10"
     gridtolerance="10"
     guidetolerance="10"
     inkscape:pageopacity="0"
     inkscape:pageshadow="2"
     inkscape:window-width="1920"
     inkscape:window-height="1017"
     id="namedview233"
     showgrid="false"
     fit-margin-top="0"
     fit-margin-left="0"
     fit-margin-right="0"
     fit-margin-bottom="0"
     inkscape:zoom="0.46354778"
     inkscape:cx="936.64843"
     inkscape:cy="-189.46313"
     inkscape:window-x="0"
     inkscape:window-y="870"
     inkscape:window-maximized="1"
     inkscape:current-layer="svg2" />
  <g
     transform="translate(-547.86134,-422.65434)"
     id="g4365">
    <path
       d="m 869.45026,426.20142 0,0 c 15.25458,0 27.62085,37.57574 27.62085,83.92776 0,46.35203 -12.36627,83.92777 -27.62085,83.92777 l 55.24164,0 c 15.25452,0 27.62079,-37.57574 27.62079,-83.92777 0,-46.35201 -12.36627,-83.92776 -27.62079,-83.92776 z"
       id="path67"
       inkscape:connector-curvature="0"
       style="fill:#000000;fill-rule:evenodd" />
    <path
       d="m 869.45026,426.20142 0,0 c -15.25452,0 -27.62079,37.57574 -27.62079,83.92776 0,46.35203 12.36627,83.92777 27.62079,83.92777 l 0,0 c 15.25458,0 27.62085,-37.57574 27.62085,-83.92777 0,-46.35201 -12.36627,-83.92776 -27.62085,-83.92776 z"
       id="path69"
       inkscape:connector-curvature="0"
       style="fill:#666666;fill-rule:evenodd" />
    <path
       d="m 869.45026,594.05695 0,0 c 15.25458,0 27.62085,-37.57574 27.62085,-83.92777 0,-46.35201 -12.36627,-83.92776 -27.62085,-83.92776 l 0,0 c -15.25452,0 -27.62079,37.57574 -27.62079,83.92776 0,46.35203 12.36627,83.92777 27.62079,83.92777 l 55.24164,0 c 15.25452,0 27.62079,-37.57574 27.62079,-83.92777 0,-46.35201 -12.36627,-83.92776 -27.62079,-83.92776 l -55.24164,0"
       id="path71"
       inkscape:connector-curvature="0"
       style="fill:#000000;fill-opacity:0;fill-rule:evenodd" />
    <path
       d="m 869.45026,594.05695 0,0 c 15.25458,0 27.62085,-37.57574 27.62085,-83.92777 0,-46.35201 -12.36627,-83.92776 -27.62085,-83.92776 l 0,0 c -15.25452,0 -27.62079,37.57574 -27.62079,83.92776 0,46.35203 12.36627,83.92777 27.62079,83.92777 l 55.24164,0 c 15.25452,0 27.62079,-37.57574 27.62079,-83.92777 0,-46.35201 -12.36627,-83.92776 -27.62079,-83.92776 l -55.24164,0"
       id="path73"
       inkscape:connector-curvature="0"
       style="fill-rule:evenodd;stroke:#000000;stroke-width:1.33333337;stroke-linecap:butt;stroke-linejoin:round" />
    <path
       d="m 785.43677,426.20142 0,0 c 14.61884,0 26.46973,37.57574 26.46973,83.92776 0,46.35203 -11.85089,83.92777 -26.46973,83.92777 l 85.16461,0 c 14.61884,0 26.46973,-37.57574 26.46973,-83.92777 0,-46.35201 -11.85089,-83.92776 -26.46973,-83.92776 z"
       id="path75"
       inkscape:connector-curvature="0"
       style="fill:#ffff00;fill-rule:evenodd" />
    <path
       d="m 785.43677,426.20142 0,0 c -14.61877,0 -26.46967,37.57574 -26.46967,83.92776 0,46.35203 11.8509,83.92777 26.46967,83.92777 l 0,0 c 14.61884,0 26.46973,-37.57574 26.46973,-83.92777 0,-46.35201 -11.85089,-83.92776 -26.46973,-83.92776 z"
       id="path77"
       inkscape:connector-curvature="0"
       style="fill:#ffff66;fill-rule:evenodd" />
    <path
       d="m 785.43677,594.05695 0,0 c 14.61884,0 26.46973,-37.57574 26.46973,-83.92777 0,-46.35201 -11.85089,-83.92776 -26.46973,-83.92776 l 0,0 c -14.61877,0 -26.46967,37.57574 -26.46967,83.92776 0,46.35203 11.8509,83.92777 26.46967,83.92777 l 85.16461,0 c 14.61884,0 26.46973,-37.57574 26.46973,-83.92777 0,-46.35201 -11.85089,-83.92776 -26.46973,-83.92776 l -85.16461,0"
       id="path79"
       inkscape:connector-curvature="0"
       style="fill:#000000;fill-opacity:0;fill-rule:evenodd" />
    <path
       d="m 785.43677,594.05695 0,0 c 14.61884,0 26.46973,-37.57574 26.46973,-83.92777 0,-46.35201 -11.85089,-83.92776 -26.46973,-83.92776 l 0,0 c -14.61877,0 -26.46967,37.57574 -26.46967,83.92776 0,46.35203 11.8509,83.92777 26.46967,83.92777 l 85.16461,0 c 14.61884,0 26.46973,-37.57574 26.46973,-83.92777 0,-46.35201 -11.85089,-83.92776 -26.46973,-83.92776 l -85.16461,0"
       id="path81"
       inkscape:connector-curvature="0"
       style="fill-rule:evenodd;stroke:#000000;stroke-width:1.33333337;stroke-linecap:butt;stroke-linejoin:round" />
    <path
       d="m 731.3463,426.20142 0,0 c 15.25452,0 27.62079,37.57574 27.62079,83.92776 0,46.35203 -12.36627,83.92777 -27.62079,83.92777 l 55.24158,0 c 15.25458,0 27.62079,-37.57574 27.62079,-83.92777 0,-46.35201 -12.36622,-83.92776 -27.62079,-83.92776 z"
       id="path83"
       inkscape:connector-curvature="0"
       style="fill:#000000;fill-rule:evenodd" />
    <path
       d="m 731.3463,426.20142 0,0 c -15.25458,0 -27.62085,37.57574 -27.62085,83.92776 0,46.35203 12.36627,83.92777 27.62085,83.92777 l 0,0 c 15.25452,0 27.62079,-37.57574 27.62079,-83.92777 0,-46.35201 -12.36627,-83.92776 -27.62079,-83.92776 z"
       id="path85"
       inkscape:connector-curvature="0"
       style="fill:#666666;fill-rule:evenodd" />
    <path
       d="m 731.3463,594.05695 0,0 c 15.25452,0 27.62079,-37.57574 27.62079,-83.92777 0,-46.35201 -12.36627,-83.92776 -27.62079,-83.92776 l 0,0 c -15.25458,0 -27.62085,37.57574 -27.62085,83.92776 0,46.35203 12.36627,83.92777 27.62085,83.92777 l 55.24158,0 c 15.25458,0 27.62079,-37.57574 27.62079,-83.92777 0,-46.35201 -12.36622,-83.92776 -27.62079,-83.92776 l -55.24158,0"
       id="path87"
       inkscape:connector-curvature="0"
       style="fill:#000000;fill-opacity:0;fill-rule:evenodd" />
    <path
       d="m 731.3463,594.05695 0,0 c 15.25452,0 27.62079,-37.57574 27.62079,-83.92777 0,-46.35201 -12.36627,-83.92776 -27.62079,-83.92776 l 0,0 c -15.25458,0 -27.62085,37.57574 -27.62085,83.92776 0,46.35203 12.36627,83.92777 27.62085,83.92777 l 55.24158,0 c 15.25458,0 27.62079,-37.57574 27.62079,-83.92777 0,-46.35201 -12.36622,-83.92776 -27.62079,-83.92776 l -55.24158,0"
       id="path89"
       inkscape:connector-curvature="0"
       style="fill-rule:evenodd;stroke:#000000;stroke-width:1.33333337;stroke-linecap:butt;stroke-linejoin:round" />
    <path
       d="m 703.72546,516.58514 -69.052,0"
       id="path91"
       inkscape:connector-curvature="0"
       style="fill:#000000;fill-opacity:0;fill-rule:evenodd" />
    <path
       d="m 703.72546,516.58514 -69.052,0"
       id="path93"
       inkscape:connector-curvature="0"
       style="fill-rule:evenodd;stroke:#ad6900;stroke-width:4;stroke-linecap:butt;stroke-linejoin:round" />
    <path
       d="m 708.3289,477.8492 -62.14679,0"
       id="path95"
       inkscape:connector-curvature="0"
       style="fill:#000000;fill-opacity:0;fill-rule:evenodd" />
    <path
       d="m 708.3289,477.8492 -62.14679,0"
       id="path97"
       inkscape:connector-curvature="0"
       style="fill-rule:evenodd;stroke:#ad6900;stroke-width:4;stroke-linecap:butt;stroke-linejoin:round" />
    <path
       d="m 719.8376,445.56927 -69.052,0"
       id="path99"
       inkscape:connector-curvature="0"
       style="fill:#000000;fill-opacity:0;fill-rule:evenodd" />
    <path
       d="m 719.8376,445.56927 -69.052,0"
       id="path101"
       inkscape:connector-curvature="0"
       style="fill-rule:evenodd;stroke:#ad6900;stroke-width:4;stroke-linecap:butt;stroke-linejoin:round" />
    <path
       d="m 715.23413,559.625 -69.052,0"
       id="path103"
       inkscape:connector-curvature="0"
       style="fill:#000000;fill-opacity:0;fill-rule:evenodd" />
    <path
       d="m 715.23413,559.625 -69.052,0"
       id="path105"
       inkscape:connector-curvature="0"
       style="fill-rule:evenodd;stroke:#ad6900;stroke-width:4;stroke-linecap:butt;stroke-linejoin:round" />
    <path
       d="m 756.66534,527.3451 -69.052,0"
       id="path107"
       inkscape:connector-curvature="0"
       style="fill:#000000;fill-opacity:0;fill-rule:evenodd" />
    <path
       d="m 756.66534,527.3451 -69.052,0"
       id="path109"
       inkscape:connector-curvature="0"
       style="fill-rule:evenodd;stroke:#ad6900;stroke-width:4;stroke-linecap:butt;stroke-linejoin:round" />
    <path
       d="m 754.36365,469.24124 -69.052,0"
       id="path111"
       inkscape:connector-curvature="0"
       style="fill:#000000;fill-opacity:0;fill-rule:evenodd" />
    <path
       d="m 754.36365,469.24124 -69.052,0"
       id="path113"
       inkscape:connector-curvature="0"
       style="fill-rule:evenodd;stroke:#ad6900;stroke-width:4;stroke-linecap:butt;stroke-linejoin:round" />
    <path
       d="m 740.55316,434.8094 -69.052,0"
       id="path115"
       inkscape:connector-curvature="0"
       style="fill:#000000;fill-opacity:0;fill-rule:evenodd" />
    <path
       d="m 740.55316,434.8094 -69.052,0"
       id="path117"
       inkscape:connector-curvature="0"
       style="fill-rule:evenodd;stroke:#ad6900;stroke-width:4;stroke-linecap:butt;stroke-linejoin:round" />
    <path
       d="m 731.34625,589.75287 -69.052,0"
       id="path119"
       inkscape:connector-curvature="0"
       style="fill:#000000;fill-opacity:0;fill-rule:evenodd" />
    <path
       d="m 731.34625,589.75287 -69.052,0"
       id="path121"
       inkscape:connector-curvature="0"
       style="fill-rule:evenodd;stroke:#ad6900;stroke-width:4;stroke-linecap:butt;stroke-linejoin:round" />
    <path
       d="m 749.76013,570.385 -69.052,0"
       id="path123"
       inkscape:connector-curvature="0"
       style="fill:#000000;fill-opacity:0;fill-rule:evenodd" />
    <path
       d="m 749.76013,570.385 -69.052,0"
       id="path125"
       inkscape:connector-curvature="0"
       style="fill-rule:evenodd;stroke:#ad6900;stroke-width:4;stroke-linecap:butt;stroke-linejoin:round" />
    <path
       d="m 620.0509,524.829 0,0 c 1.51788,0 2.74835,-6.18109 2.74835,-13.80588 0,-7.62478 -1.23047,-13.80588 -2.74835,-13.80588 l 139.37897,0 c 1.51788,0 2.74835,6.1811 2.74835,13.80588 0,7.62479 -1.23047,13.80588 -2.74835,13.80588 z"
       id="path127"
       inkscape:connector-curvature="0"
       style="fill:#4f81bd;fill-rule:evenodd" />
    <path
       d="m 620.0509,524.829 0,0 c -1.51788,0 -2.74835,-6.18109 -2.74835,-13.80588 0,-7.62478 1.23047,-13.80588 2.74835,-13.80588 l 0,0 c 1.51788,0 2.74835,6.1811 2.74835,13.80588 0,7.62479 -1.23047,13.80588 -2.74835,13.80588 z"
       id="path129"
       inkscape:connector-curvature="0"
       style="fill:#95b3d7;fill-rule:evenodd" />
    <path
       d="m 620.0509,497.21722 0,0 c 1.51788,0 2.74835,6.18109 2.74835,13.80588 0,7.62478 -1.23047,13.80588 -2.74835,13.80588 l 0,0 c -1.51788,0 -2.74835,-6.1811 -2.74835,-13.80588 0,-7.62479 1.23047,-13.80588 2.74835,-13.80588 l 139.37897,0 c 1.51788,0 2.74835,6.18109 2.74835,13.80588 0,7.62478 -1.23047,13.80588 -2.74835,13.80588 l -139.37897,0"
       id="path131"
       inkscape:connector-curvature="0"
       style="fill:#000000;fill-opacity:0;fill-rule:evenodd" />
    <path
       d="m 620.0509,497.21722 0,0 c 1.51788,0 2.74835,6.18109 2.74835,13.80588 0,7.62478 -1.23047,13.80588 -2.74835,13.80588 l 0,0 c -1.51788,0 -2.74835,-6.1811 -2.74835,-13.80588 0,-7.62479 1.23047,-13.80588 2.74835,-13.80588 l 139.37897,0 c 1.51788,0 2.74835,6.18109 2.74835,13.80588 0,7.62478 -1.23047,13.80588 -2.74835,13.80588 l -139.37897,0"
       id="path133"
       inkscape:connector-curvature="0"
       style="fill-rule:evenodd;stroke:#000000;stroke-width:1.33333337;stroke-linecap:butt;stroke-linejoin:round" />
    <path
       d="m 626.386,599.32104 0,0 c -18.08649,0 -32.74847,-39.39893 -32.74847,-88 l 0,0 c 0,-48.60107 14.66198,-88.00003 32.74847,-88.00003 l 0,0 c 18.08655,0 32.74853,39.39896 32.74853,88.00003 l 0,0 c 0,48.60107 -14.66198,88 -32.74853,88 z"
       id="path135"
       inkscape:connector-curvature="0"
       style="fill:#eeece1;fill-rule:evenodd" />
    <path
       d="m 626.386,599.32104 0,0 c -18.08649,0 -32.74847,-39.39893 -32.74847,-88 l 0,0 c 0,-48.60107 14.66198,-88.00003 32.74847,-88.00003 l 0,0 c 18.08655,0 32.74853,39.39896 32.74853,88.00003 l 0,0 c 0,48.60107 -14.66198,88 -32.74853,88 z"
       id="path137"
       inkscape:connector-curvature="0"
       style="fill-rule:evenodd;stroke:#000000;stroke-width:1.33333337;stroke-linecap:butt;stroke-linejoin:round" />
    <path
       d="m 619.5634,599.32104 0,0 c -18.08649,0 -32.74853,-39.39893 -32.74853,-88 l 0,0 c 0,-48.60107 14.66204,-88.00003 32.74853,-88.00003 l 0,0 c 18.08649,0 32.74853,39.39896 32.74853,88.00003 l 0,0 c 0,48.60107 -14.66204,88 -32.74853,88 z"
       id="path139"
       inkscape:connector-curvature="0"
       style="fill:#eeece1;fill-rule:evenodd" />
    <path
       d="m 619.5634,599.32104 0,0 c -18.08649,0 -32.74853,-39.39893 -32.74853,-88 l 0,0 c 0,-48.60107 14.66204,-88.00003 32.74853,-88.00003 l 0,0 c 18.08649,0 32.74853,39.39896 32.74853,88.00003 l 0,0 c 0,48.60107 -14.66204,88 -32.74853,88 z"
       id="path141"
       inkscape:connector-curvature="0"
       style="fill-rule:evenodd;stroke:#000000;stroke-width:1.33333337;stroke-linecap:butt;stroke-linejoin:round" />
    <path
       d="m 644.2451,513.90344 0,0 c 0,-39.49521 -10.15802,-71.51242 -22.68854,-71.51242 l 0,0 c -6.01739,0 -11.78827,7.53433 -16.04321,20.9455 -4.25495,13.41119 -6.64533,31.60064 -6.64533,50.56692 l 0,0 c 0,39.49524 10.15802,71.51239 22.68854,71.51239 l 0,0 c 6.0174,0 11.78827,-7.5343 16.04322,-20.9455 4.25488,-13.41113 6.64532,-31.60064 6.64532,-50.56689 z"
       id="path143"
       inkscape:connector-curvature="0"
       style="fill:#4f81bd;fill-rule:evenodd" />
    <path
       d="m 644.2451,513.90344 0,0 c 0,-39.49521 -10.15802,-71.51242 -22.68854,-71.51242 l 0,0 c -6.01739,0 -11.78827,7.53433 -16.04321,20.9455 -4.25495,13.41119 -6.64533,31.60064 -6.64533,50.56692 l 0,0 c 0,39.49524 10.15802,71.51239 22.68854,71.51239 l 0,0 c 6.0174,0 11.78827,-7.5343 16.04322,-20.9455 4.25488,-13.41113 6.64532,-31.60064 6.64532,-50.56689 z"
       id="path145"
       inkscape:connector-curvature="0"
       style="fill-rule:evenodd;stroke:#000000;stroke-width:1.33333337;stroke-linecap:butt;stroke-linejoin:round" />
    <path
       d="m 637.864,514.4994 0,0 c 0,-39.49524 -10.15802,-71.51242 -22.68854,-71.51242 l 0,0 c -6.01739,0 -11.78827,7.5343 -16.04321,20.9455 -4.25495,13.41116 -6.64533,31.60064 -6.64533,50.56692 l 0,0 c 0,39.49518 10.15802,71.51239 22.68854,71.51239 l 0,0 c 6.01734,0 11.78827,-7.5343 16.04322,-20.9455 4.25488,-13.41119 6.64532,-31.60064 6.64532,-50.56689 z"
       id="path147"
       inkscape:connector-curvature="0"
       style="fill:#4f81bd;fill-rule:evenodd" />
    <path
       d="m 637.864,514.4994 0,0 c 0,-39.49524 -10.15802,-71.51242 -22.68854,-71.51242 l 0,0 c -6.01739,0 -11.78827,7.5343 -16.04321,20.9455 -4.25495,13.41116 -6.64533,31.60064 -6.64533,50.56692 l 0,0 c 0,39.49518 10.15802,71.51239 22.68854,71.51239 l 0,0 c 6.01734,0 11.78827,-7.5343 16.04322,-20.9455 4.25488,-13.41119 6.64532,-31.60064 6.64532,-50.56689 z"
       id="path149"
       inkscape:connector-curvature="0"
       style="fill-rule:evenodd;stroke:#000000;stroke-width:1.33333337;stroke-linecap:butt;stroke-linejoin:round" />
    <path
       d="m 603.8313,461.461 3.30872,-7.9458 7.09014,-4.17157 5.19935,0.79459 4.25421,7.74719 -3.54511,10.72683 -2.83612,-3.17831 -4.96313,0 -3.54499,3.77426 -4.96307,-7.74719 z"
       id="path151"
       inkscape:connector-curvature="0"
       style="fill:#ffffff;fill-rule:evenodd" />
    <path
       d="m 627.7014,465.4339 -2.59979,4.17154 -1.6543,4.17154 2.83606,8.54162 1.65436,15.49454 6.38116,-1.19208 -1.41809,-15.49429 -2.12701,-10.13092 -3.07239,-5.56195 z"
       id="path153"
       inkscape:connector-curvature="0"
       style="fill:#ffffff;fill-rule:evenodd" />
    <path
       d="m 635.02795,503.17657 -5.67212,0 0.70905,11.32275 -1.41803,14.30237 5.67212,0.59613 1.1817,-7.94592 0.70898,-11.12415 -1.1817,-7.15118 z"
       id="path155"
       inkscape:connector-curvature="0"
       style="fill:#ffffff;fill-rule:evenodd" />
    <path
       d="m 625.57434,547.07715 2.3634,-10.72675 5.43586,0.19861 -0.47272,7.15119 -1.41803,9.33636 -3.78143,11.32288 -5.43573,-7.15143 3.30865,-10.13086 z"
       id="path157"
       inkscape:connector-curvature="0"
       style="fill:#ffffff;fill-rule:evenodd" />
    <path
       d="m 603.5949,567.14044 3.30878,7.94586 7.09015,4.17157 5.19934,-0.79461 4.25421,-7.7472 -3.54517,-10.7268 -2.83606,3.17828 -4.96313,0 -3.54499,-3.77423 -4.96313,7.74713 z"
       id="path159"
       inkscape:connector-curvature="0"
       style="fill:#ffffff;fill-rule:evenodd" />
    <path
       d="m 602.41327,466.42715 2.59973,4.17151 1.6543,4.17154 -2.836,8.54162 -1.65442,15.49454 -6.38116,-1.19208 1.41815,-15.49426 2.12701,-10.13095 3.07239,-5.56192 z"
       id="path161"
       inkscape:connector-curvature="0"
       style="fill:#ffffff;fill-rule:evenodd" />
    <path
       d="m 604.304,544.49475 -2.3634,-10.72675 -5.43586,0.19861 0.47278,7.15119 1.41797,9.33636 3.78143,11.32288 5.43573,-7.15143 -3.30865,-10.13086 z"
       id="path163"
       inkscape:connector-curvature="0"
       style="fill:#ffffff;fill-rule:evenodd" />
    <path
       d="m 620.7295,488.5761 1.1817,-46.48306"
       id="path165"
       inkscape:connector-curvature="0"
       style="fill:#000000;fill-opacity:0;fill-rule:evenodd" />
    <path
       d="m 620.7295,488.5761 1.1817,-46.48306"
       id="path167"
       inkscape:connector-curvature="0"
       style="fill-rule:evenodd;stroke:#000000;stroke-width:4;stroke-linecap:butt;stroke-linejoin:round" />
    <path
       d="m 615.2937,571.01404 6.14484,-39.92773"
       id="path169"
       inkscape:connector-curvature="0"
       style="fill:#000000;fill-opacity:0;fill-rule:evenodd" />
    <path
       d="m 615.2937,571.01404 6.14484,-39.92773"
       id="path171"
       inkscape:connector-curvature="0"
       style="fill-rule:evenodd;stroke:#000000;stroke-width:4;stroke-linecap:butt;stroke-linejoin:round" />
    <path
       d="m 598.041,542.8064 16.30737,-18.67273"
       id="path173"
       inkscape:connector-curvature="0"
       style="fill:#000000;fill-opacity:0;fill-rule:evenodd" />
    <path
       d="m 598.041,542.8064 16.30737,-18.67273"
       id="path175"
       inkscape:connector-curvature="0"
       style="fill-rule:evenodd;stroke:#000000;stroke-width:4;stroke-linecap:butt;stroke-linejoin:round" />
    <path
       d="M 617.4208,497.1179 601.11343,470.10209"
       id="path177"
       inkscape:connector-curvature="0"
       style="fill:#000000;fill-opacity:0;fill-rule:evenodd" />
    <path
       d="M 617.4208,497.1179 601.11343,470.10209"
       id="path179"
       inkscape:connector-curvature="0"
       style="fill-rule:evenodd;stroke:#000000;stroke-width:4;stroke-linecap:butt;stroke-linejoin:round" />
    <path
       d="m 633.8463,497.21722 6.61749,-21.05646"
       id="path181"
       inkscape:connector-curvature="0"
       style="fill:#000000;fill-opacity:0;fill-rule:evenodd" />
    <path
       d="m 633.8463,497.21722 6.61749,-21.05646"
       id="path183"
       inkscape:connector-curvature="0"
       style="fill-rule:evenodd;stroke:#000000;stroke-width:4;stroke-linecap:butt;stroke-linejoin:round" />
    <path
       d="m 630.0649,524.829 7.5628,26.22119"
       id="path185"
       inkscape:connector-curvature="0"
       style="fill:#000000;fill-opacity:0;fill-rule:evenodd" />
    <path
       d="m 630.0649,524.829 7.5628,26.22119"
       id="path187"
       inkscape:connector-curvature="0"
       style="fill-rule:evenodd;stroke:#000000;stroke-width:4;stroke-linecap:butt;stroke-linejoin:round" />
    <path
       d="m 627.3469,509.8312 19.61615,3.17831"
       id="path189"
       inkscape:connector-curvature="0"
       style="fill:#000000;fill-opacity:0;fill-rule:evenodd" />
    <path
       d="m 627.3469,509.8312 19.61615,3.17831"
       id="path191"
       inkscape:connector-curvature="0"
       style="fill-rule:evenodd;stroke:#000000;stroke-width:4;stroke-linecap:butt;stroke-linejoin:round" />
    <path
       d="m 624.98364,551.54675 0,0 c -5.48212,0 -9.92621,-18.1875 -9.92621,-40.62299 l 0,0 c 0,-22.43548 4.44409,-40.62304 9.92621,-40.62304 l 0,0 c 5.48212,0 9.92621,18.18756 9.92621,40.62304 l 0,0 c 0,22.43549 -4.44409,40.62299 -9.92621,40.62299 z"
       id="path193"
       inkscape:connector-curvature="0"
       style="fill:#eeece1;fill-rule:evenodd" />
    <path
       d="m 624.98364,551.54675 0,0 c -5.48212,0 -9.92621,-18.1875 -9.92621,-40.62299 l 0,0 c 0,-22.43548 4.44409,-40.62304 9.92621,-40.62304 l 0,0 c 5.48212,0 9.92621,18.18756 9.92621,40.62304 l 0,0 c 0,22.43549 -4.44409,40.62299 -9.92621,40.62299 z"
       id="path195"
       inkscape:connector-curvature="0"
       style="fill-rule:evenodd;stroke:#000000;stroke-width:1.33333337;stroke-linecap:butt;stroke-linejoin:round" />
    <path
       d="m 616.47534,551.54675 0,0 c -7.0484,0 -12.76227,-18.1875 -12.76227,-40.62299 l 0,0 c 0,-22.43548 5.71387,-40.62304 12.76227,-40.62304 l 0,0 c 7.04846,0 12.76233,18.18756 12.76233,40.62304 l 0,0 c 0,22.43549 -5.71387,40.62299 -12.76233,40.62299 z"
       id="path197"
       inkscape:connector-curvature="0"
       style="fill:#eeece1;fill-rule:evenodd" />
    <path
       d="m 616.47534,551.54675 0,0 c -7.0484,0 -12.76227,-18.1875 -12.76227,-40.62299 l 0,0 c 0,-22.43548 5.71387,-40.62304 12.76227,-40.62304 l 0,0 c 7.04846,0 12.76233,18.18756 12.76233,40.62304 l 0,0 c 0,22.43549 -5.71387,40.62299 -12.76233,40.62299 z"
       id="path199"
       inkscape:connector-curvature="0"
       style="fill-rule:evenodd;stroke:#000000;stroke-width:1.33333337;stroke-linecap:butt;stroke-linejoin:round" />
    <path
       d="m 554.43365,524.13367 0,0 c 2.41315,0 4.36938,-6.04767 4.36938,-13.50787 0,-7.46021 -1.95623,-13.50791 -4.36938,-13.50791 l 61.92645,0 c 2.41321,0 4.36945,6.0477 4.36945,13.50791 0,7.4602 -1.95624,13.50787 -4.36945,13.50787 z"
       id="path201"
       inkscape:connector-curvature="0"
       style="fill:#4f81bd;fill-rule:evenodd" />
    <path
       d="m 554.43365,524.13367 0,0 c -2.41315,0 -4.36939,-6.04767 -4.36939,-13.50787 0,-7.46021 1.95624,-13.50791 4.36939,-13.50791 l 0,0 c 2.41315,0 4.36938,6.0477 4.36938,13.50791 0,7.4602 -1.95623,13.50787 -4.36938,13.50787 z"
       id="path203"
       inkscape:connector-curvature="0"
       style="fill:#95b3d7;fill-rule:evenodd" />
    <path
       d="m 554.43365,497.1179 0,0 c 2.41315,0 4.36938,6.0477 4.36938,13.5079 0,7.46021 -1.95623,13.50788 -4.36938,13.50788 l 0,0 c -2.41315,0 -4.36939,-6.04767 -4.36939,-13.50788 0,-7.4602 1.95624,-13.5079 4.36939,-13.5079 l 61.92645,0 c 2.41321,0 4.36945,6.0477 4.36945,13.5079 0,7.46021 -1.95624,13.50788 -4.36945,13.50788 l -61.92645,0"
       id="path205"
       inkscape:connector-curvature="0"
       style="fill:#000000;fill-opacity:0;fill-rule:evenodd" />
    <path
       d="m 554.43365,497.1179 0,0 c 2.41315,0 4.36938,6.0477 4.36938,13.5079 0,7.46021 -1.95623,13.50788 -4.36938,13.50788 l 0,0 c -2.41315,0 -4.36939,-6.04767 -4.36939,-13.50788 0,-7.4602 1.95624,-13.5079 4.36939,-13.5079 l 61.92645,0 c 2.41321,0 4.36945,6.0477 4.36945,13.5079 0,7.46021 -1.95624,13.50788 -4.36945,13.50788 l -61.92645,0"
       id="path207"
       inkscape:connector-curvature="0"
       style="fill-rule:evenodd;stroke:#000000;stroke-width:1.33333337;stroke-linecap:butt;stroke-linejoin:round" />
    <path
       d="m 619.1933,516.08856 -64.75677,0"
       id="path209"
       inkscape:connector-curvature="0"
       style="fill:#000000;fill-opacity:0;fill-rule:evenodd" />
    <path
       d="m 619.1933,516.08856 -64.75677,0"
       id="path211"
       inkscape:connector-curvature="0"
       style="fill-rule:evenodd;stroke:#000000;stroke-width:1.33333337;stroke-linecap:butt;stroke-linejoin:round" />
    <path
       d="m 619.666,505.9576 -64.75684,0"
       id="path213"
       inkscape:connector-curvature="0"
       style="fill:#000000;fill-opacity:0;fill-rule:evenodd" />
    <path
       d="m 619.666,505.9576 -64.75684,0"
       id="path215"
       inkscape:connector-curvature="0"
       style="fill-rule:evenodd;stroke:#000000;stroke-width:1.33333337;stroke-linecap:butt;stroke-linejoin:round" />
    <path
       d="m 617.77527,500.1969 -64.52051,0"
       id="path217"
       inkscape:connector-curvature="0"
       style="fill:#000000;fill-opacity:0;fill-rule:evenodd" />
    <path
       d="m 617.77527,500.1969 -64.52051,0"
       id="path219"
       inkscape:connector-curvature="0"
       style="fill-rule:evenodd;stroke:#000000;stroke-width:1.33333337;stroke-linecap:butt;stroke-linejoin:round" />
    <path
       d="m 618.72064,521.65063 -64.52051,0"
       id="path221"
       inkscape:connector-curvature="0"
       style="fill:#000000;fill-opacity:0;fill-rule:evenodd" />
    <path
       d="m 618.72064,521.65063 -64.52051,0"
       id="path223"
       inkscape:connector-curvature="0"
       style="fill-rule:evenodd;stroke:#000000;stroke-width:1.33333337;stroke-linecap:butt;stroke-linejoin:round" />
    <path
       d="m 560.3449,511.51968 0,0 c 0,7.46024 -2.64526,13.5079 -5.90845,13.5079 l 0,0 c -1.56701,0 -3.06988,-1.42315 -4.17791,-3.95636 -1.10804,-2.5332 -1.73053,-5.96899 -1.73053,-9.55154 l 0,0 c 0,-7.4602 2.64526,-13.5079 5.90844,-13.5079 l 0,0 c 3.26319,0 5.90845,6.0477 5.90845,13.5079 z"
       id="path225"
       inkscape:connector-curvature="0"
       style="fill:#eeece1;fill-rule:evenodd" />
    <path
       d="m 560.3449,511.51968 0,0 c 0,7.46024 -2.64526,13.5079 -5.90845,13.5079 l 0,0 c -1.56701,0 -3.06988,-1.42315 -4.17791,-3.95636 -1.10804,-2.5332 -1.73053,-5.96899 -1.73053,-9.55154 l 0,0 c 0,-7.4602 2.64526,-13.5079 5.90844,-13.5079 l 0,0 c 3.26319,0 5.90845,6.0477 5.90845,13.5079 z"
       id="path227"
       inkscape:connector-curvature="0"
       style="fill-rule:evenodd;stroke:#000000;stroke-width:1.33333337;stroke-linecap:butt;stroke-linejoin:round" />
    <path
       d="m 583.9166,511.32104 -4.15277,104"
       id="path229"
       inkscape:connector-curvature="0"
       style="fill:#000000;fill-opacity:0;fill-rule:evenodd" />
  </g>
</svg>
